<?xml version="1.0"?>
<svg xmlns="http://www.w3.org/2000/svg" viewBox="0 0 369.96969696969694 52.102802738998875" preserveAspectRatio="xMidYMid meet" class="css-g5ufxp"
    id="bccfhacc">
    <defs id="SvgjsDefs1001"></defs>
    <g id="SvgjsG1007" featurekey="S6ay6y-0"
        transform="matrix(0.5303030303030303,0,0,0.5303030303030303,0,-0.4640151515151515)" fill="#111">
        <path xmlns="http://www.w3.org/2000/svg" fill-rule="evenodd" clip-rule="evenodd"
            d="M100,49.666c0,13.657-4.907,25.305-14.72,34.946  c-9.814,9.676-21.564,14.514-35.254,14.514c-13.69,0-25.426-4.753-35.204-14.256C4.941,75.296,0,63.682,0,50.026  c0-13.655,4.941-25.287,14.822-34.895C24.601,5.627,36.336,0.877,50.026,0.875c13.689,0,25.406,4.684,35.151,14.05  C95.059,24.431,100,36.011,100,49.666z M95.119,49.388c0-12.123-4.478-22.514-13.431-31.174C72.8,9.652,62.278,5.373,50.122,5.371  l-4.901,10.048l5.343,1.078l4.166-4.166l7.353,0.49l1.471,3.921l-4.411,4.411v2.647l2.745,0.539l1.274-2.059l4.853-3.039  l-0.147,2.059l1.813,3.137l-2.156,2.254l1.372,1.324l-3.235,0.196l1.324,2.647l-7.01,3.333l1.078,3.971h-2.206l-0.979-3.921  l-5.146-0.098l-0.932,1.52l-2.107-0.98l-3.432,3.431l2.745,3.284l-0.098,3.627l2.892,2.157l16.861,1.912l5.343,3.774l-0.638,9.362  L61.739,73.846c-0.752,0.753-1.487,2.844-2.206,6.275c-0.687,3.234-0.931,5.538-0.734,6.91l-1.765,2.01  c-1.373-2.712-3.154-6.879-5.344-12.499c-0.523-1.927-0.979-4.378-1.372-7.353c-0.294-2.45-0.588-4.916-0.882-7.4l-7.353-6.471  l6.52-7.695l-2.696-3.873c-4.151-0.849-6.847-1.601-8.088-2.254c-1.242-0.687-3.382-2.564-6.421-5.637l2.549,4.95l-1.716,0.735  l-3.97-7.451l0.784-6.96l-1.226-4.902l-3.823-3.725l-2.794-0.686l-2.451,1.715l-2.695,0.687C8.638,28.786,4.93,38.621,4.93,49.73  c0,12.418,4.443,22.957,13.333,31.615c8.789,8.562,19.408,12.84,31.859,12.842c12.45,0,23.053-4.362,31.812-13.088  C90.723,72.376,95.117,61.805,95.119,49.388z">
        </path>
    </g>
    <g id="SvgjsG1008" featurekey="j5pGhi-0"
        transform="matrix(2.257258660245698,0,0,2.257258660245698,70.41986803594455,-1.2502156318429396)" fill="#111">
        <path
            d="M15.723 7.4510000000000005 l-1.123 1.0645 q-1.2109375 -1.19140625 -2.651367188 -1.806640625 t-2.8174 -0.61523 q-1.69921875 0 -3.237304688 0.83984375 t-2.3877 2.2656 t-0.84961 2.7148 q0 1.640625 0.87890625 3.110351563 t2.4268 2.3047 t3.3838 0.83496 q2.2265625 0 3.774414063 -1.259765625 t1.8408 -3.2617 l-4.6191 0 l0 -1.3965 l6.2305 0 q-0.01953125 3.359375 -1.987304688 5.33203125 t-5.2881 1.9727 q-4.00390625 0 -6.34765625 -2.734375 q-1.806640625 -2.109375 -1.806640625 -4.873046875 q0 -2.060546875 1.030273438 -3.671875 t2.8369 -2.6172 t4.082 -1.0059 q1.8359375 0 3.45703125 0.6689453125 t3.1738 2.1338 z M19.29689375 4.901999999999999 l2.8809 0 q2.490234375 0 3.349609375 0.21484375 q1.25 0.3125 2.03125 1.259765625 t0.78125 2.3926 q0 1.435546875 -0.7666015625 2.377929688 t-2.1143 1.2646 q-0.986328125 0.234375 -3.681640625 0.234375 l-1.0352 0 l0 6.7383 l-1.4453 0 l0 -14.482 z M20.74219375 6.308999999999999 l0 4.9219 l2.4609 0.029297 q1.474609375 0 2.163085938 -0.2685546875 t1.084 -0.87891 t0.39551 -1.3428 q0 -0.7421875 -0.3955078125 -1.34765625 t-1.04 -0.85938 t-2.1094 -0.25391 l-2.5586 0 z M29.785160625 6.348000000000001 l0 -1.4063 l7.9492 0 l0 1.4063 l-3.2422 0 l0 13.076 l-1.4746 0 l0 -13.076 l-3.2324 0 z M43.0175825 6.348000000000001 l0 -1.4063 l7.9492 0 l0 1.4063 l-3.2422 0 l0 13.076 l-1.4746 0 l0 -13.076 l-3.2324 0 z M50.800821875 14.541 l0 -1.2891 q0.15625 -0.966796875 0.44921875 -1.572265625 q0.68359375 -1.6796875 1.8359375 -2.4609375 t1.9141 -0.78125 q0.56640625 0 1.2109375 0.37109375 l-0.71289 1.1523 q-0.908203125 -0.33203125 -1.801757813 0.537109375 t-1.2354 1.8945 q-0.25390625 0.908203125 -0.25390625 3.408203125 l0 3.623 l-1.4063 0 l0 -4.8828 z M62.441409375 8.203 q2.470703125 0 4.1015625 1.787109375 q1.50390625 1.630859375 1.50390625 3.876953125 q0.01953125 5.546875 0 5.634765625 l-1.4551 0 l0 -2.4316 q-1.142578125 2.12890625 -4.150390625 2.3828125 q-2.4609375 0 -4.018554688 -1.674804688 t-1.5576 -3.9111 q0 -2.2265625 1.474609375 -3.8671875 q1.630859375 -1.796875 4.1015625 -1.796875 z M62.441409375 9.551 q-1.708984375 0 -2.939453125 1.26953125 t-1.2305 3.0664 q0 1.162109375 0.6298828125 2.236328125 t2.1338 1.8164 q3.76953125 0.83984375 5.361328125 -3.427734375 q0.087890625 -1.3671875 -0.29296875 -2.6171875 q-0.2734375 -0.56640625 -0.751953125 -1.07421875 q-1.201171875 -1.26953125 -2.91015625 -1.26953125 z M70.712853125 15.3809 l-0.019531 -1.1426 q-0.029296875 -0.83984375 0.068359375 -1.42578125 q0.21484375 -1.845703125 0.9375 -2.705078125 q0.703125 -0.751953125 1.435546875 -1.162109375 q1.2109375 -0.517578125 2.763671875 -0.48828125 q1.2109375 0 2.241210938 0.6103515625 t1.4697 1.6406 t0.43945 3.2275 l0 5.5078 l-1.3672 0 l0 -5.1074 q0 -1.85546875 -0.15625 -2.48046875 q-0.244140625 -1.064453125 -0.966796875 -1.508789063 t-2.1387 -0.44434 q-1.25 0 -2.2265625 0.72265625 t-0.9082 1.9727 q-0.185546875 0.80078125 -0.185546875 2.919921875 l0 3.9258 l-1.3867 0 l0 -4.0625 z M88.369178125 9.648 l-0.87891 0.91797 q-1.11328125 -1.07421875 -2.158203125 -1.07421875 q-0.673828125 0 -1.15234375 0.439453125 t-0.47852 1.0449 q0 0.5078125 0.400390625 0.9765625 q0.390625 0.498046875 1.650390625 1.142578125 q1.54296875 0.791015625 2.08984375 1.533203125 q0.537109375 0.751953125 0.537109375 1.689453125 q0 1.30859375 -0.9228515625 2.221679688 t-2.3096 0.91309 q-0.927734375 0 -1.772460938 -0.3955078125 t-1.3916 -1.1084 l0.86914 -0.98633 q1.0546875 1.19140625 2.236328125 1.19140625 q0.8203125 0 1.401367188 -0.5322265625 t0.58105 -1.2451 q0 -0.595703125 -0.380859375 -1.0546875 t-1.7285 -1.1523 q-1.455078125 -0.732421875 -1.97265625 -1.474609375 q-0.52734375 -0.72265625 -0.52734375 -1.66015625 q0 -1.220703125 0.8349609375 -2.026367188 t2.0947 -0.80566 q1.474609375 0 2.978515625 1.4453125 z M90.585978125 4.59 l1.3867 0 l0 14.854 l-1.3867 0 l0 -14.854 z M99.882815625 8.203 q2.470703125 0 4.1015625 1.787109375 q1.50390625 1.630859375 1.50390625 3.876953125 q0.01953125 5.546875 0 5.634765625 l-1.4551 0 l0 -2.4316 q-1.142578125 2.12890625 -4.150390625 2.3828125 q-2.4609375 0 -4.018554688 -1.674804688 t-1.5576 -3.9111 q0 -2.2265625 1.474609375 -3.8671875 q1.630859375 -1.796875 4.1015625 -1.796875 z M99.882815625 9.551 q-1.708984375 0 -2.939453125 1.26953125 t-1.2305 3.0664 q0 1.162109375 0.6298828125 2.236328125 t2.1338 1.8164 q3.76953125 0.83984375 5.361328125 -3.427734375 q0.087890625 -1.3671875 -0.29296875 -2.6171875 q-0.2734375 -0.56640625 -0.751953125 -1.07421875 q-1.201171875 -1.26953125 -2.91015625 -1.26953125 z M112.021459375 17.9297 q-1.015625 0.546875 -1.9921875 0.087890625 q-1.19140625 -0.908203125 -1.1328125 -2.587890625 l0 -4.5313 l2.5391 0 l0 -1.1816 l-2.5488 0 l0 -5.1758 l-1.3867 0 l0 11.123 q-0.01953125 1.171875 0.537109375 2.1484375 q0.91796875 1.552734375 2.5 1.640625 q0.83984375 0.029296875 1.9140625 -0.380859375 q-0.166015625 -0.41015625 -0.4296875 -1.142578125 z M119.707034375 8.203 q2.470703125 0 4.1015625 1.787109375 q1.474609375 1.640625 1.474609375 3.876953125 t-1.5625 3.9111 t-4.0137 1.6748 q-2.4609375 0 -4.018554688 -1.674804688 t-1.5576 -3.9111 q0 -2.2265625 1.474609375 -3.8671875 q1.630859375 -1.796875 4.1015625 -1.796875 z M119.707034375 9.551 q-1.708984375 0 -2.939453125 1.26953125 t-1.2305 3.0664 q0 1.162109375 0.5615234375 2.172851563 t1.5186 1.5527 t2.0898 0.54199 q1.15234375 0 2.104492188 -0.5419921875 t1.5088 -1.5527 t0.55664 -2.1729 q0 -1.796875 -1.23046875 -3.06640625 t-2.9395 -1.2695 z M127.2949625 14.541 l0 -1.2891 q0.15625 -0.966796875 0.44921875 -1.572265625 q0.68359375 -1.6796875 1.8359375 -2.4609375 t1.9141 -0.78125 q0.56640625 0 1.2109375 0.37109375 l-0.71289 1.1523 q-0.908203125 -0.33203125 -1.801757813 0.537109375 t-1.2354 1.8945 q-0.25390625 0.908203125 -0.25390625 3.408203125 l0 3.623 l-1.4063 0 l0 -4.8828 z">
        </path>
    </g>
</svg>