<?xml version="1.0"?>
<svg xmlns="http://www.w3.org/2000/svg" width="256" height="257" class="css-1j8o68f" role="img">

 <g>
  <title>Layer 1</title>
  <g fill="#41D1FF" transform="matrix(2.55164 0 0 2.58891 52.4949 37.2084)" featurekey="symbolFeature-0" id="SvgjsG1016">
   <path xmlns="http://www.w3.org/2000/svg" id="svg_1" d="m79.67038,35.05409c0,13.657 -4.907,25.305 -14.72,34.946c-9.814,9.676 -21.564,14.514 -35.254,14.514c-13.69,0 -25.426,-4.753 -35.204,-14.256c-9.881,-9.574 -14.822,-21.188 -14.822,-34.844c0,-13.655 4.941,-25.287 14.822,-34.895c9.779,-9.504 21.514,-14.254 35.204,-14.256c13.689,0 25.406,4.684 35.151,14.05c9.882,9.506 14.823,21.086 14.823,34.741zm-4.881,-0.278c0,-12.123 -4.478,-22.514 -13.431,-31.174c-8.888,-8.562 -19.41,-12.841 -31.566,-12.843l-4.901,10.048l5.343,1.078l4.166,-4.166l7.353,0.49l1.471,3.921l-4.411,4.411l0,2.647l2.745,0.539l1.274,-2.059l4.853,-3.039l-0.147,2.059l1.813,3.137l-2.156,2.254l1.372,1.324l-3.235,0.196l1.324,2.647l-7.01,3.333l1.078,3.971l-2.206,0l-0.979,-3.921l-5.146,-0.098l-0.932,1.52l-2.107,-0.98l-3.432,3.431l2.745,3.284l-0.098,3.627l2.892,2.157l16.861,1.912l5.343,3.774l-0.638,9.362l-11.618,11.616c-0.752,0.753 -1.487,2.844 -2.206,6.275c-0.687,3.234 -0.931,5.538 -0.734,6.91l-1.765,2.01c-1.373,-2.712 -3.154,-6.879 -5.344,-12.499c-0.523,-1.927 -0.979,-4.378 -1.372,-7.353c-0.294,-2.45 -0.588,-4.916 -0.882,-7.4l-7.353,-6.471l6.52,-7.695l-2.696,-3.873c-4.151,-0.849 -6.847,-1.601 -8.088,-2.254c-1.242,-0.687 -3.382,-2.564 -6.421,-5.637l2.549,4.95l-1.716,0.735l-3.97,-7.451l0.784,-6.96l-1.226,-4.902l-3.823,-3.725l-2.794,-0.686l-2.451,1.715l-2.695,0.687c-7.418,8.564 -11.126,18.399 -11.126,29.508c0,12.418 4.443,22.957 13.333,31.615c8.789,8.562 19.408,12.84 31.859,12.842c12.45,0 23.053,-4.362 31.812,-13.088c8.789,-8.723 13.183,-19.294 13.185,-31.711z" clip-rule="evenodd" fill-rule="evenodd"/>
  </g>
 </g>
</svg>