<svg width="256" height="257" xmlns="http://www.w3.org/2000/svg" class="css-1j8o68f" role="img">
 <g>
  <title>Layer 1</title>
  <g stroke="null" id="svg_2">
   <g stroke="null" id="svg_3">
    <title stroke="null">Layer 1</title>
    <g stroke="null" fill="#41D1FF" transform="matrix(5.59709 0 0 5.52073 110.537 82.4642)" featurekey="symbolFeature-0" id="svg_1">
     <path stroke="null" id="svg_4" d="m-16.05871,-13.75185c-1.69922,0 -3,1.30078 -3,3l0,20c0,1.69922 1.30078,3 3,3l0.40625,0l1.59375,-2l-2,0c-0.60156,0 -1,-0.39844 -1,-1l0,-20c0,-0.60156 0.39844,-1 1,-1l20,0c0.60156,0 1,0.39844 1,1l0,15l-3,0c-1.69922,0 -3,1.30078 -3,3l0,3l-5,0l1.59375,2l3.40625,0l0,3.40625l2,1.6875l0,-10.09375c0,-0.60156 0.39844,-1 1,-1l20,0c0.60156,0 1,0.39844 1,1l0,20c0,0.60156 -0.39844,1 -1,1l-20,0c-0.60156,0 -1,-0.39844 -1,-1l0,-2l-2,1.6875l0,0.3125c0,1.69922 1.30078,3 3,3l20,0c1.69922,0 3,-1.30078 3,-3l0,-20c0,-1.69922 -1.30078,-3 -3,-3l-15,0l0,-15c0,-1.69922 -1.30078,-3 -3,-3l-20,0zm10,5l0,2l-8,0l0,2l11.90625,0c-0.30859,2.22656 -1.61328,4.05469 -3.25,5.53125c-2.50781,-2.19922 -3.78125,-4.5 -3.78125,-4.5l-1.75,0.9375c0,0 1.30859,2.41016 3.9375,4.8125c-0.06641,0.04688 -0.12109,0.10938 -0.1875,0.15625c-2.64062,1.82031 -5.28125,2.71875 -5.28125,2.71875l0.625,1.90625c0,0 2.90625,-0.96484 5.8125,-2.96875c0.20703,-0.14453 0.41797,-0.3125 0.625,-0.46875c1.14063,0.84375 2.46875,1.61719 3.96875,2.21875l0.75,-1.875c-1.14844,-0.45703 -2.17578,-1.05078 -3.09375,-1.6875c1.82813,-1.73047 3.35547,-3.98828 3.65625,-6.78125l3.0625,0l0,-2l-7,0l0,-2l-2,0zm-4,17l-5,6l3,0l0,4l4,0l0,-4l3,0l-5,-6zm21,1.40625l-5.1875,13.78125l2.5,0l1.09375,-3.1875l5.28125,0l1.125,3.1875l2.5,0l-5.21875,-13.78125l-2.09375,0zm1,3l2,5.6875l-4,0l2,-5.6875zm-15,3.59375l0,3l-9,0l4,4l5,0l0,3l6,-5l-6,-5z"/>
    </g>
   </g>
  </g>
 </g>

</svg>